<svg xmlns="http://www.w3.org/2000/svg" width="100" height="100" fill="none"><path fill-rule="evenodd" d="M57.84 69.175c9.743-1.15 20.106-4.693 20.106-21.522 0-4.783-1.684-8.68-4.428-11.693.443-1.15 1.858-5.49-.534-11.513 0 0-3.543-1.152-11.867 4.427-3.543-.973-7.44-1.594-11.07-1.594-3.72 0-7.62.62-11.074 1.594-8.414-5.58-11.957-4.427-11.957-4.427-2.39 6.022-.973 10.363-.53 11.513-2.746 3.012-4.43 6.9-4.43 11.693 0 16.83 10.363 20.37 20.106 21.522-1.24 1.065-2.39 3.1-2.833 5.935-2.48 1.062-8.947 3.1-12.843-3.63 0 0-2.304-4.162-6.643-4.428 0 0-4.34-.088-.354 2.655 0 0 2.922 1.33 4.872 6.377 0 0 2.656 8.416 14.88 5.758v7.528c0 1.154-.885 2.48-3.1 2.127-17.36-5.758-29.85-22.233-29.85-41.54C6.29 25.774 25.863 6.2 50.045 6.2c24.09 0 43.755 19.573 43.666 43.754 0 19.308-12.49 35.694-29.85 41.54-2.215.443-3.1-.885-3.1-2.127V77.236c0-4.077-1.33-6.73-2.923-8.062zM100 50.045C100 22.408 77.6 0 50.045 0 22.408 0 0 22.408 0 50.045 0 77.6 22.408 100 50.045 100 77.6 100 100 77.6 100 50.045z" fill="#fff"/></svg>