<svg xmlns="http://www.w3.org/2000/svg" width="100" height="100" fill="none"><path fill-rule="evenodd" d="M100 50c0 27.614-22.386 50-50 50S0 77.614 0 50 22.386 0 50 0s50 22.386 50 50zm-23.977-7.3c4.035 0 7.3 3.275 7.3 7.3 0 2.983-1.813 5.556-4.2 6.725.117.702.175 1.404.175 2.164 0 11.228-13.04 20.292-29.18 20.292s-29.18-9.064-29.18-20.292a13.68 13.68 0 0 1 .175-2.222c-2.573-1.17-4.328-3.684-4.328-6.667 0-4.035 3.275-7.3 7.3-7.3 1.93 0 3.743.82 5.03 2.047 5.03-3.684 11.988-5.965 19.766-6.2l3.684-17.427c.117-.35.292-.643.585-.82s.643-.234.994-.175L66.257 22.7c.82-1.754 2.573-2.924 4.62-2.924a5.22 5.22 0 0 1 5.205 5.205 5.22 5.22 0 0 1-5.205 5.205c-2.807 0-5.088-2.222-5.205-4.97l-10.82-2.28-3.333 15.614c7.602.292 14.503 2.632 19.474 6.2 1.287-1.287 3.04-2.047 5.03-2.047zM38.538 50a5.22 5.22 0 0 0-5.205 5.205 5.22 5.22 0 0 0 5.205 5.205 5.22 5.22 0 0 0 5.205-5.205A5.22 5.22 0 0 0 38.538 50zm11.52 22.75c1.988 0 8.772-.234 12.34-3.8.526-.526.526-1.345.117-1.93a1.38 1.38 0 0 0-1.93 0c-2.28 2.222-7.018 3.04-10.468 3.04s-8.246-.82-10.468-3.04a1.38 1.38 0 0 0-1.93 0 1.38 1.38 0 0 0 0 1.93c3.51 3.51 10.35 3.8 12.34 3.8zm6.2-17.544a5.22 5.22 0 0 0 5.205 5.205 5.22 5.22 0 0 0 5.205-5.205A5.22 5.22 0 0 0 61.462 50a5.22 5.22 0 0 0-5.205 5.205z" fill="#fff"/></svg>