<svg xmlns="http://www.w3.org/2000/svg" width="100" height="100" fill="none"><path d="M86.798 54.875c.188-1.562.313-3.187.313-4.875s-.125-3.312-.375-4.875l10.563-8.25c.938-.75 1.188-2.125.625-3.187l-10-17.312c-.625-1.125-1.937-1.5-3.062-1.125l-12.437 5c-2.625-2-5.375-3.625-8.437-4.875L62.1 2.125C61.923.875 60.86 0 59.6 0h-20c-1.25 0-2.25.875-2.437 2.125l-1.875 13.25c-3.062 1.25-5.875 2.938-8.437 4.875l-12.437-5c-1.125-.437-2.437 0-3.062 1.125l-10 17.313c-.625 1.125-.375 2.438.625 3.188l10.563 8.25c-.25 1.563-.437 3.25-.437 4.875s.125 3.313.375 4.875l-10.563 8.25c-.937.75-1.187 2.125-.625 3.188l10 17.313c.625 1.125 1.938 1.5 3.063 1.125l12.438-5c2.625 2 5.375 3.625 8.438 4.875l1.875 13.25c.25 1.25 1.25 2.125 2.5 2.125h20c1.25 0 2.313-.875 2.438-2.125l1.875-13.25c3.063-1.25 5.875-2.937 8.438-4.875l12.438 5c1.125.438 2.438 0 3.063-1.125l10-17.312c.625-1.125.375-2.437-.625-3.187l-10.437-8.25zM49.6 68.75c-10.312 0-18.75-8.437-18.75-18.75s8.438-18.75 18.75-18.75S68.36 39.688 68.36 50 59.923 68.75 49.6 68.75z" fill="#fff"/></svg>