<svg xmlns="http://www.w3.org/2000/svg" width="100" height="100" fill="none"><path d="M31.448 91c37.736 0 58.376-31.55 58.376-58.91 0-.896 0-1.788-.06-2.676A41.96 41.96 0 0 0 100 18.695a40.66 40.66 0 0 1-11.784 3.258c4.283-2.587 7.49-6.657 9.02-11.452a40.89 40.89 0 0 1-13.028 5.026 20.48 20.48 0 0 0-11.641-6.254c-4.456-.737-9.028.03-13.01 2.18a20.65 20.65 0 0 0-9.013 9.715 20.9 20.9 0 0 0-1.301 13.243c-8.157-.413-16.137-2.552-23.42-6.28A58.35 58.35 0 0 1 6.96 12.778c-2.624 4.558-3.427 9.954-2.247 15.09s4.255 9.623 8.6 12.55c-3.265-.098-6.46-.987-9.312-2.592v.262A20.83 20.83 0 0 0 8.641 51.2c3 3.7 7.176 6.237 11.82 7.184a20.3 20.3 0 0 1-9.264.355c1.31 4.114 3.864 7.712 7.3 10.3a20.42 20.42 0 0 0 11.868 4.089 40.93 40.93 0 0 1-25.48 8.881A41.38 41.38 0 0 1 0 81.7a57.7 57.7 0 0 0 31.448 9.284" fill="#fff"/></svg>