<svg xmlns="http://www.w3.org/2000/svg" width="100" height="100" fill="none"><g clip-path="url(#B)"><mask id="A" fill="#fff"><path d="M50 100c27.614 0 50-22.386 50-50S77.614 0 50 0 0 22.386 0 50s22.386 50 50 50z"/><path d="M50 100c13.807 0 25-22.386 25-50S63.807 0 50 0 25 22.386 25 50s11.193 50 25 50z"/><path d="M11.177 82.163C20.346 76.52 34.33 72.917 50 72.917c15.454 0 29.27 3.504 38.44 9m.383-64.077C79.654 23.48 65.67 27.083 50 27.083c-15.452 0-29.27-3.504-38.44-9"/></mask><path d="M100 52a2 2 0 1 0 0-4v4zm-52 48a2 2 0 1 0 4 0h-4zM0 48a2 2 0 1 0 0 4v-4zM52 0a2 2 0 1 0-4 0h4zM0 52h100v-4H0v4zM48 0v100h4V0h-4zm48 50c0 25.405-20.595 46-46 46v8c29.823 0 54-24.177 54-54h-8zM50 96C24.595 96 4 75.405 4 50h-8c0 29.823 24.177 54 54 54v-8zM4 50C4 24.595 24.595 4 50 4v-8C20.177-4-4 20.177-4 50h8zM50 4c25.405 0 46 20.595 46 46h8c0-29.823-24.177-54-54-54v8zm21 46c0 13.32-2.708 25.183-6.9 33.567C59.79 92.2 54.572 96 50 96v8c9.235 0 16.52-7.382 21.255-16.856C76.112 77.432 79 64.293 79 50h-8zM50 96c-4.572 0-9.788-3.81-14.1-12.433C31.708 75.183 29 63.32 29 50h-8c0 14.293 2.888 27.432 7.745 37.144C33.48 96.618 40.765 104 50 104v-8zM29 50c0-13.32 2.708-25.183 6.9-33.567C40.212 7.81 45.428 4 50 4v-8c-9.235 0-16.52 7.382-21.255 16.856C23.888 22.57 21 35.707 21 50h8zM50 4c4.572 0 9.79 3.81 14.1 12.433C68.292 24.817 71 36.68 71 50h8c0-14.294-2.888-27.43-7.745-37.144C66.52 3.382 59.235-4 50-4v8zM13.274 85.57c8.374-5.155 21.578-8.652 36.726-8.652v-8c-16.19 0-30.956 3.706-40.92 9.84l4.194 6.813zM50 76.917c14.936 0 27.988 3.4 36.38 8.44l4.118-6.86c-9.95-5.974-24.527-9.58-40.5-9.58v8zm36.727-62.484c-8.374 5.153-21.578 8.65-36.727 8.65v8c16.19 0 30.956-3.707 40.92-9.837l-4.192-6.814zM50 23.083c-14.934 0-27.988-3.4-36.38-8.44L9.5 21.502c9.95 5.974 24.53 9.58 40.5 9.58v-8z" fill="#fff" mask="url(#A)"/></g><defs><clipPath id="B"><path fill="#fff" d="M0 0h100v100H0z"/></clipPath></defs></svg>